<svg width="87" height="94" viewBox="0 0 87 94" fill="none" xmlns="http://www.w3.org/2000/svg">
<g clip-path="url(#clip0_1255_34041)">
<path d="M22.4565 74.0009L29.791 73.6166L22.4565 52.9095L4.30518 63.4552L22.4565 74.0009Z" fill="black"/>
<path d="M29.6716 73.7607L47.811 63.203V52.8254L29.6716 63.3831V73.7607Z" fill="#F2606A"/>
<path d="M11.5322 63.203L29.6716 73.7607V63.3831L11.5322 52.8254V63.203Z" fill="#793035"/>
<path d="M29.6716 63.3831L47.8111 52.8254L29.6716 42.2796L11.5322 52.8254L29.6716 63.3831Z" fill="white"/>
<path d="M61.6455 86L68.98 85.6156L61.6455 64.8965L43.4941 75.4543L61.6455 86Z" fill="black"/>
<path d="M68.8606 85.7598L87 75.202V64.8244L68.8606 75.3702V85.7598Z" fill="#ECB22E"/>
<path d="M50.7212 75.202L68.8606 85.7598V75.3702L50.7212 64.8244V75.202Z" fill="#B18623"/>
<path d="M68.8606 75.3702L87 64.8245L68.8606 54.2787L50.7212 64.8245L68.8606 75.3702Z" fill="white"/>
<path d="M59.9878 55.8522L67.3222 55.4678L59.9878 34.7487L41.8364 45.2944L59.9878 55.8522Z" fill="black"/>
<path d="M67.2029 55.5999L85.3423 45.0542V34.6766L67.2029 45.2224V55.5999Z" fill="#36C5F0"/>
<path d="M49.0635 45.0542L67.2029 55.5999V45.2224L49.0635 34.6766V45.0542Z" fill="#2994B4"/>
<path d="M67.2029 45.2224L85.3423 34.6766L67.2029 24.1309L49.0635 34.6766L67.2029 45.2224Z" fill="white"/>
<path d="M18.1394 42.9042L25.4739 42.5199L18.1394 21.8128L0 32.3585L18.1394 42.9042Z" fill="black"/>
<path d="M25.3547 42.664L43.4941 32.1183V21.7407L25.3547 32.2864V42.664Z" fill="#2EB67D"/>
<path d="M7.21533 32.1183L25.3547 42.664V32.2864L7.21533 21.7407V32.1183Z" fill="#175B3F"/>
<path d="M25.3547 32.2864L43.4942 21.7407L25.3547 11.183L7.21533 21.7407L25.3547 32.2864Z" fill="white"/>
<path d="M29.5763 54.9273C31.9409 54.9273 33.8578 53.9755 33.8578 52.8013C33.8578 51.6272 31.9409 50.6754 29.5763 50.6754C27.2118 50.6754 25.2949 51.6272 25.2949 52.8013C25.2949 53.9755 27.2118 54.9273 29.5763 54.9273Z" fill="#E5E6E7"/>
<path d="M67.2028 36.8747C69.5674 36.8747 71.4842 35.9228 71.4842 34.7487C71.4842 33.5746 69.5674 32.6227 67.2028 32.6227C64.8382 32.6227 62.9214 33.5746 62.9214 34.7487C62.9214 35.9228 64.8382 36.8747 67.2028 36.8747Z" fill="#E5E6E7"/>
<path d="M25.2951 24.1309C27.6597 24.1309 29.5765 23.1791 29.5765 22.0049C29.5765 20.8308 27.6597 19.879 25.2951 19.879C22.9305 19.879 21.0137 20.8308 21.0137 22.0049C21.0137 23.1791 22.9305 24.1309 25.2951 24.1309Z" fill="#E5E6E7"/>
<path d="M68.8605 67.551C71.2251 67.551 73.142 66.5991 73.142 65.425C73.142 64.2509 71.2251 63.299 68.8605 63.299C66.496 63.299 64.5791 64.2509 64.5791 65.425C64.5791 66.5991 66.496 67.551 68.8605 67.551Z" fill="#E5E6E7"/>
<path d="M68.8605 65.425C68.5385 65.425 68.2761 65.1728 68.2642 64.8485C68.2642 64.8004 68.0137 59.6477 65.5212 54.2307C62.2058 47.024 56.7079 42.7721 49.1707 41.571C37.1732 39.6612 30.268 52.9575 30.1965 53.0896C30.0534 53.3899 29.6837 53.498 29.3974 53.3539C29.0993 53.1977 28.992 52.8374 29.1351 52.5491C29.2066 52.405 36.4934 38.34 49.3496 40.3819C68.3119 43.3847 69.4329 64.5722 69.4449 64.7884C69.4568 65.1247 69.2063 65.401 68.8724 65.413C68.8724 65.413 68.8605 65.413 68.8486 65.413L68.8605 65.425Z" fill="url(#paint0_linear_1255_34041)"/>
<path d="M29.6718 53.4259C29.3737 53.4259 29.1113 53.1977 29.0755 52.8974C29.0517 52.7173 27.1316 34.2562 43.2317 26.2689C59.4868 18.1974 67.6441 34.2442 67.7276 34.4124C67.8707 34.7127 67.7515 35.073 67.4533 35.2171C67.1552 35.3613 66.7974 35.2411 66.6543 34.9529C66.3442 34.3283 58.9501 19.8069 43.7564 27.3499C28.3957 34.9769 30.2323 52.5852 30.2562 52.7653C30.292 53.0896 30.0535 53.3899 29.7315 53.4259C29.7076 53.4259 29.6837 53.4259 29.6599 53.4259H29.6718Z" fill="url(#paint1_linear_1255_34041)"/>
<path d="M67.2029 35.2772C66.9167 35.2772 66.6543 35.061 66.6185 34.7727C66.5827 34.5205 62.4921 9.20111 43.506 9.20111C30.2801 9.20111 26.106 21.4044 25.9271 21.9208C25.8198 22.2331 25.4858 22.4013 25.1758 22.3052C24.8657 22.1971 24.6987 21.8608 24.7941 21.5485C24.8418 21.4164 29.3975 8 43.506 8C63.5178 8 67.7515 34.3163 67.7992 34.5805C67.8469 34.9048 67.6203 35.2171 67.2983 35.2652C67.2625 35.2652 67.2387 35.2652 67.2029 35.2652V35.2772Z" fill="url(#paint2_linear_1255_34041)"/>
</g>
<defs>
<linearGradient id="paint0_linear_1255_34041" x1="29.0754" y1="52.8014" x2="69.4568" y2="52.8014" gradientUnits="userSpaceOnUse">
<stop stop-color="#F2606A"/>
<stop offset="1" stop-color="#F4B223"/>
</linearGradient>
<linearGradient id="paint1_linear_1255_34041" x1="28.992" y1="38.7123" x2="67.7992" y2="38.7123" gradientUnits="userSpaceOnUse">
<stop stop-color="#F2606A"/>
<stop offset="1" stop-color="#36C5F0"/>
</linearGradient>
<linearGradient id="paint2_linear_1255_34041" x1="24.7583" y1="21.6326" x2="67.7992" y2="21.6326" gradientUnits="userSpaceOnUse">
<stop stop-color="#00B073"/>
<stop offset="1" stop-color="#36C5F0"/>
</linearGradient>
<clipPath id="clip0_1255_34041">
<rect width="87" height="78" fill="white" transform="translate(0 8)"/>
</clipPath>
</defs>
</svg>
